<svg width="2345" height="1767" viewBox="0 0 2345 1767" fill="none" xmlns="http://www.w3.org/2000/svg">
<path d="M1443.92 19.6859C1428.69 25.778 1422.02 44.9448 1414.77 58.3163C1381.74 119.32 1346.69 179.223 1312.4 239.528C1242.7 362.119 1167.8 480.678 1085.01 594.928C1006.43 703.377 924.76 809.131 813.896 886.763C696.698 968.831 567.955 998.587 426.187 977.72C297.764 958.818 156.641 901.59 62.5344 810.205C12.26 761.385 -3.85264 702.066 43.3947 644.796C96.2214 580.764 197.263 556.685 275.177 545.411C406.631 526.39 543.513 577.722 664.993 620.213C885.266 697.259 1095.4 796.315 1261.31 964.375C1356.55 1060.86 1408.22 1186.41 1471.49 1303.97C1540.38 1431.99 1617.77 1550.69 1731.54 1643.92C1837.27 1730.55 1963.6 1755.44 2097.83 1751.21C2176.28 1748.73 2253.16 1733.21 2319.78 1690.28C2334.1 1681.05 2328.91 1662.8 2328.91 1647.43" stroke="#f7f7f7" stroke-width="30" stroke-linecap="square"/>
</svg>
